<svg xmlns="http://www.w3.org/2000/svg"
    width="82"
    height="28"
    role="presentation">
    <path d="M67.34 0c-3.33 0-6.432 1.186-8.804 3.147A13.958 13.958 0 0049.687 0a13.74 13.74 0 00-8.803 3.147C38.466 1.186 35.41 0 32.081 0c-3.33 0-6.432 1.186-8.804 3.147C20.86 1.186 17.804 0 14.474 0 6.719 0 .47 6.248.47 14s6.25 14 14.004 14c3.33 0 6.431-1.186 8.803-3.147C25.695 26.814 28.751 28 32.081 28s6.431-1.186 8.803-3.147C43.301 26.814 46.358 28 49.733 28s6.431-1.186 8.849-3.147C61 26.814 64.056 28 67.385 28a13.976 13.976 0 0014.004-14c-.046-7.707-6.295-14-14.05-14zm-8.804 20.293c-1.277-1.778-2.007-3.967-2.007-6.293s.73-4.515 2.007-6.293A10.765 10.765 0 0160.543 14c0 2.371-.775 4.515-2.007 6.293zm-17.652 0c-1.277-1.778-2.007-3.967-2.007-6.293s.73-4.515 2.007-6.293A10.772 10.772 0 0142.891 14c0 2.371-.775 4.515-2.007 6.293zm-17.652 0c-1.278-1.778-2.007-3.967-2.007-6.293s.73-4.515 2.007-6.293A10.772 10.772 0 0125.239 14c0 2.371-.776 4.515-2.007 6.293zM3.527 14c0-5.974 4.835-10.853 10.856-10.853 2.463 0 4.789.82 6.613 2.234-1.87 2.371-2.964 5.336-2.964 8.619 0 3.238 1.094 6.248 2.964 8.619-1.824 1.414-4.105 2.234-6.613 2.234C8.407 24.853 3.527 20.02 3.527 14zm21.894 8.619c1.87-2.371 2.965-5.336 2.965-8.619 0-3.238-1.095-6.248-2.965-8.619 1.825-1.414 4.105-2.234 6.614-2.234 2.509 0 4.79.82 6.614 2.234-1.87 2.371-2.965 5.336-2.965 8.619 0 3.238 1.095 6.248 2.965 8.619-1.825 1.414-4.105 2.234-6.614 2.234-2.509 0-4.79-.82-6.614-2.234zm17.652 0c1.87-2.371 2.965-5.336 2.965-8.619 0-3.238-1.094-6.248-2.965-8.619 1.825-1.414 4.106-2.234 6.614-2.234 2.464 0 4.79.82 6.614 2.234-1.87 2.371-2.965 5.336-2.965 8.619 0 3.238 1.095 6.248 2.965 8.619-1.824 1.414-4.105 2.234-6.614 2.234-2.463 0-4.789-.82-6.614-2.234zm24.267 2.234c-2.463 0-4.79-.82-6.614-2.234 1.87-2.371 2.965-5.336 2.965-8.619 0-3.238-1.095-6.248-2.965-8.619 1.824-1.414 4.105-2.234 6.614-2.234 5.975 0 10.856 4.833 10.856 10.853s-4.88 10.853-10.856 10.853z"
        fill="#000"
        fill-rule="evenodd"></path>
</svg>